<mxfile host="app.diagrams.net" agent="Mozilla/5.0 (Windows NT 10.0; Win64; x64) AppleWebKit/537.36 (KHTML, like Gecko) Chrome/130.0.0.0 Safari/537.36" version="24.8.2">
  <diagram name="第 1 页" id="OfiumS_bF2tCKraavCnR">
    <mxGraphModel dx="1050" dy="565" grid="1" gridSize="10" guides="1" tooltips="1" connect="1" arrows="1" fold="1" page="1" pageScale="1" pageWidth="827" pageHeight="1169" math="0" shadow="0">
      <root>
        <mxCell id="0" />
        <mxCell id="1" parent="0" />
        <mxCell id="AewWTO96I1uZT224aE-j-2" value="" style="rounded=0;whiteSpace=wrap;html=1;" vertex="1" parent="1">
          <mxGeometry x="230" y="20" width="150" height="430" as="geometry" />
        </mxCell>
        <mxCell id="AewWTO96I1uZT224aE-j-3" value="" style="rounded=0;whiteSpace=wrap;html=1;fillColor=#fff2cc;strokeColor=#d6b656;" vertex="1" parent="1">
          <mxGeometry x="230" y="20" width="150" height="40" as="geometry" />
        </mxCell>
        <mxCell id="AewWTO96I1uZT224aE-j-43" style="rounded=0;orthogonalLoop=1;jettySize=auto;html=1;exitX=0;exitY=0.75;exitDx=0;exitDy=0;strokeColor=default;startArrow=none;startFill=0;endArrow=none;endFill=0;" edge="1" parent="1" source="AewWTO96I1uZT224aE-j-4">
          <mxGeometry relative="1" as="geometry">
            <mxPoint x="200" y="90" as="targetPoint" />
          </mxGeometry>
        </mxCell>
        <mxCell id="AewWTO96I1uZT224aE-j-48" style="edgeStyle=orthogonalEdgeStyle;rounded=0;orthogonalLoop=1;jettySize=auto;html=1;exitX=0;exitY=0.5;exitDx=0;exitDy=0;endArrow=none;endFill=0;" edge="1" parent="1" source="AewWTO96I1uZT224aE-j-4">
          <mxGeometry relative="1" as="geometry">
            <mxPoint x="120" y="80" as="targetPoint" />
          </mxGeometry>
        </mxCell>
        <mxCell id="AewWTO96I1uZT224aE-j-4" value="" style="rounded=0;whiteSpace=wrap;html=1;fillColor=#fff2cc;strokeColor=#d6b656;" vertex="1" parent="1">
          <mxGeometry x="230" y="60" width="150" height="40" as="geometry" />
        </mxCell>
        <mxCell id="AewWTO96I1uZT224aE-j-5" value="" style="rounded=0;whiteSpace=wrap;html=1;fillColor=#fff2cc;strokeColor=#d6b656;" vertex="1" parent="1">
          <mxGeometry x="230" y="100" width="150" height="40" as="geometry" />
        </mxCell>
        <mxCell id="AewWTO96I1uZT224aE-j-6" value="" style="rounded=0;whiteSpace=wrap;html=1;fillColor=#fff2cc;strokeColor=#d6b656;" vertex="1" parent="1">
          <mxGeometry x="230" y="140" width="150" height="40" as="geometry" />
        </mxCell>
        <mxCell id="AewWTO96I1uZT224aE-j-7" value="" style="rounded=0;whiteSpace=wrap;html=1;fillColor=#fff2cc;strokeColor=#d6b656;" vertex="1" parent="1">
          <mxGeometry x="230" y="180" width="150" height="40" as="geometry" />
        </mxCell>
        <mxCell id="AewWTO96I1uZT224aE-j-8" value="" style="rounded=0;whiteSpace=wrap;html=1;fillColor=#fff2cc;strokeColor=#d6b656;" vertex="1" parent="1">
          <mxGeometry x="230" y="220" width="150" height="40" as="geometry" />
        </mxCell>
        <mxCell id="AewWTO96I1uZT224aE-j-9" value="" style="rounded=0;whiteSpace=wrap;html=1;fillColor=#fff2cc;strokeColor=#d6b656;" vertex="1" parent="1">
          <mxGeometry x="230" y="260" width="150" height="40" as="geometry" />
        </mxCell>
        <mxCell id="AewWTO96I1uZT224aE-j-49" style="edgeStyle=orthogonalEdgeStyle;rounded=0;orthogonalLoop=1;jettySize=auto;html=1;exitX=0;exitY=0.5;exitDx=0;exitDy=0;endArrow=none;endFill=0;" edge="1" parent="1" source="AewWTO96I1uZT224aE-j-10">
          <mxGeometry relative="1" as="geometry">
            <mxPoint x="120" y="320" as="targetPoint" />
          </mxGeometry>
        </mxCell>
        <mxCell id="AewWTO96I1uZT224aE-j-10" value="" style="rounded=0;whiteSpace=wrap;html=1;fillColor=#fff2cc;strokeColor=#d6b656;" vertex="1" parent="1">
          <mxGeometry x="230" y="300" width="150" height="40" as="geometry" />
        </mxCell>
        <mxCell id="AewWTO96I1uZT224aE-j-11" value="" style="rounded=0;whiteSpace=wrap;html=1;fillColor=#fff2cc;strokeColor=#d6b656;" vertex="1" parent="1">
          <mxGeometry x="230" y="340" width="150" height="40" as="geometry" />
        </mxCell>
        <mxCell id="AewWTO96I1uZT224aE-j-12" value="" style="rounded=0;whiteSpace=wrap;html=1;fillColor=#fff2cc;strokeColor=#d6b656;" vertex="1" parent="1">
          <mxGeometry x="230" y="380" width="150" height="40" as="geometry" />
        </mxCell>
        <mxCell id="AewWTO96I1uZT224aE-j-13" value="" style="rounded=0;whiteSpace=wrap;html=1;fillColor=#fff2cc;strokeColor=#d6b656;" vertex="1" parent="1">
          <mxGeometry x="230" y="420" width="150" height="40" as="geometry" />
        </mxCell>
        <mxCell id="AewWTO96I1uZT224aE-j-14" value="" style="rounded=0;whiteSpace=wrap;html=1;fillColor=#dae8fc;strokeColor=#6c8ebf;" vertex="1" parent="1">
          <mxGeometry x="230" y="90" width="150" height="30" as="geometry" />
        </mxCell>
        <mxCell id="AewWTO96I1uZT224aE-j-16" value="" style="rounded=0;whiteSpace=wrap;html=1;fillColor=#dae8fc;strokeColor=#6c8ebf;" vertex="1" parent="1">
          <mxGeometry x="230" y="120" width="150" height="40" as="geometry" />
        </mxCell>
        <mxCell id="AewWTO96I1uZT224aE-j-17" value="" style="rounded=0;whiteSpace=wrap;html=1;fillColor=#dae8fc;strokeColor=#6c8ebf;" vertex="1" parent="1">
          <mxGeometry x="230" y="160" width="150" height="40" as="geometry" />
        </mxCell>
        <mxCell id="AewWTO96I1uZT224aE-j-18" value="" style="rounded=0;whiteSpace=wrap;html=1;fillColor=#dae8fc;strokeColor=#6c8ebf;" vertex="1" parent="1">
          <mxGeometry x="230" y="200" width="150" height="40" as="geometry" />
        </mxCell>
        <mxCell id="AewWTO96I1uZT224aE-j-19" value="" style="rounded=0;whiteSpace=wrap;html=1;fillColor=#dae8fc;strokeColor=#6c8ebf;" vertex="1" parent="1">
          <mxGeometry x="230" y="240" width="150" height="40" as="geometry" />
        </mxCell>
        <mxCell id="AewWTO96I1uZT224aE-j-44" style="edgeStyle=orthogonalEdgeStyle;rounded=0;orthogonalLoop=1;jettySize=auto;html=1;exitX=0;exitY=1;exitDx=0;exitDy=0;endArrow=none;endFill=0;" edge="1" parent="1" source="AewWTO96I1uZT224aE-j-20">
          <mxGeometry relative="1" as="geometry">
            <mxPoint x="200" y="310" as="targetPoint" />
          </mxGeometry>
        </mxCell>
        <mxCell id="AewWTO96I1uZT224aE-j-20" value="" style="rounded=0;whiteSpace=wrap;html=1;fillColor=#dae8fc;strokeColor=#6c8ebf;" vertex="1" parent="1">
          <mxGeometry x="230" y="280" width="150" height="30" as="geometry" />
        </mxCell>
        <mxCell id="AewWTO96I1uZT224aE-j-36" value="" style="endArrow=classic;startArrow=classic;html=1;rounded=0;" edge="1" parent="1">
          <mxGeometry width="50" height="50" relative="1" as="geometry">
            <mxPoint x="400" y="460" as="sourcePoint" />
            <mxPoint x="400" y="20" as="targetPoint" />
          </mxGeometry>
        </mxCell>
        <mxCell id="AewWTO96I1uZT224aE-j-37" value="" style="endArrow=none;html=1;rounded=0;" edge="1" parent="1">
          <mxGeometry width="50" height="50" relative="1" as="geometry">
            <mxPoint x="380" y="20" as="sourcePoint" />
            <mxPoint x="430" y="20" as="targetPoint" />
          </mxGeometry>
        </mxCell>
        <mxCell id="AewWTO96I1uZT224aE-j-38" value="" style="endArrow=none;html=1;rounded=0;" edge="1" parent="1">
          <mxGeometry width="50" height="50" relative="1" as="geometry">
            <mxPoint x="380" y="460" as="sourcePoint" />
            <mxPoint x="430" y="460" as="targetPoint" />
          </mxGeometry>
        </mxCell>
        <mxCell id="AewWTO96I1uZT224aE-j-47" value="" style="endArrow=classic;startArrow=classic;html=1;rounded=0;" edge="1" parent="1">
          <mxGeometry width="50" height="50" relative="1" as="geometry">
            <mxPoint x="210" y="310" as="sourcePoint" />
            <mxPoint x="210" y="90" as="targetPoint" />
          </mxGeometry>
        </mxCell>
        <mxCell id="AewWTO96I1uZT224aE-j-51" value="" style="endArrow=classic;startArrow=classic;html=1;rounded=0;" edge="1" parent="1">
          <mxGeometry width="50" height="50" relative="1" as="geometry">
            <mxPoint x="150" y="320" as="sourcePoint" />
            <mxPoint x="150" y="80" as="targetPoint" />
          </mxGeometry>
        </mxCell>
        <mxCell id="AewWTO96I1uZT224aE-j-52" value="content&lt;br&gt;内容区" style="text;html=1;align=center;verticalAlign=middle;whiteSpace=wrap;rounded=0;" vertex="1" parent="1">
          <mxGeometry x="80" y="170" width="60" height="30" as="geometry" />
        </mxCell>
        <mxCell id="AewWTO96I1uZT224aE-j-53" value="phantom&lt;br&gt;虚拟区" style="text;html=1;align=center;verticalAlign=middle;whiteSpace=wrap;rounded=0;" vertex="1" parent="1">
          <mxGeometry x="400" y="190" width="60" height="30" as="geometry" />
        </mxCell>
        <mxCell id="AewWTO96I1uZT224aE-j-54" value="container&lt;br&gt;可视区&lt;br&gt;可滚动" style="text;html=1;align=center;verticalAlign=middle;whiteSpace=wrap;rounded=0;" vertex="1" parent="1">
          <mxGeometry x="150" y="165" width="60" height="30" as="geometry" />
        </mxCell>
      </root>
    </mxGraphModel>
  </diagram>
</mxfile>
